<svg width="50" height="18" viewBox="0 0 50 18" fill="none" xmlns="http://www.w3.org/2000/svg">
<path d="M6.432 14.3521C6.32533 14.3521 6.23467 14.3201 6.16 14.2561C6.096 14.1814 6.064 14.0907 6.064 13.9841V11.6481H0.864C0.757333 11.6481 0.666667 11.6161 0.592 11.5521C0.528 11.4774 0.496 11.3867 0.496 11.2801V10.6881C0.496 10.5387 0.554667 10.3787 0.672 10.2081L5.488 3.42405C5.54133 3.33872 5.62133 3.27472 5.728 3.23205C5.83467 3.17872 5.952 3.15205 6.08 3.15205H7.168C7.28533 3.15205 7.376 3.18405 7.44 3.24805C7.504 3.31205 7.536 3.40272 7.536 3.52005V10.3041H8.992C9.09867 10.3041 9.184 10.3414 9.248 10.4161C9.32267 10.4801 9.36 10.5654 9.36 10.6721V11.2801C9.36 11.3867 9.32267 11.4774 9.248 11.5521C9.184 11.6161 9.09867 11.6481 8.992 11.6481H7.536V13.9841C7.536 14.0907 7.49867 14.1814 7.424 14.2561C7.36 14.3201 7.27467 14.3521 7.168 14.3521H6.432ZM2.16 10.3361H6.08V4.76805L2.16 10.3361ZM11.0966 14.3521C10.99 14.3521 10.8993 14.3201 10.8246 14.2561C10.7606 14.1814 10.7286 14.0907 10.7286 13.9841V12.8801C10.7286 12.7734 10.7606 12.6827 10.8246 12.6081C10.8993 12.5334 10.99 12.4961 11.0966 12.4961H12.2006C12.3073 12.4961 12.3926 12.5334 12.4566 12.6081C12.5313 12.6827 12.5686 12.7734 12.5686 12.8801V13.9841C12.5686 14.0907 12.5313 14.1814 12.4566 14.2561C12.3926 14.3201 12.3073 14.3521 12.2006 14.3521H11.0966ZM18.2966 14.5121C17.4966 14.5121 16.8033 14.3681 16.2166 14.0801C15.63 13.7921 15.182 13.4187 14.8726 12.9601C14.5633 12.4907 14.398 11.9894 14.3766 11.4561V11.4241C14.3766 11.3387 14.4086 11.2694 14.4726 11.2161C14.5366 11.1627 14.6113 11.1361 14.6966 11.1361H15.4806C15.7046 11.1361 15.8486 11.2534 15.9126 11.4881C16.0726 12.0641 16.366 12.4961 16.7926 12.7841C17.23 13.0614 17.7313 13.2001 18.2966 13.2001C19.022 13.2001 19.6246 12.9814 20.1046 12.5441C20.5846 12.0961 20.8246 11.4827 20.8246 10.7041C20.8246 9.98938 20.5846 9.42405 20.1046 9.00805C19.6246 8.58138 19.022 8.36805 18.2966 8.36805C17.9126 8.36805 17.6033 8.41605 17.3686 8.51205C17.134 8.60805 16.894 8.74672 16.6486 8.92805C16.51 9.03472 16.3926 9.11472 16.2966 9.16805C16.2113 9.21072 16.1153 9.23205 16.0086 9.23205H15.2406C15.1446 9.23205 15.0593 9.20005 14.9846 9.13605C14.91 9.06138 14.878 8.97605 14.8886 8.88005L15.3846 3.55205C15.4166 3.28538 15.55 3.15205 15.7846 3.15205H21.3206C21.438 3.15205 21.5286 3.18405 21.5926 3.24805C21.6566 3.31205 21.6886 3.40272 21.6886 3.52005V4.11205C21.6886 4.21872 21.6513 4.30405 21.5766 4.36805C21.5126 4.43205 21.4273 4.46405 21.3206 4.46405H16.7126L16.4246 7.68005C16.9366 7.31738 17.6246 7.13605 18.4886 7.13605C19.2033 7.13605 19.854 7.28005 20.4406 7.56805C21.0273 7.84538 21.4913 8.25605 21.8326 8.80005C22.1846 9.34405 22.3606 9.98938 22.3606 10.7361C22.3606 11.5254 22.1846 12.2081 21.8326 12.7841C21.4913 13.3494 21.0113 13.7814 20.3926 14.0801C19.7846 14.3681 19.086 14.5121 18.2966 14.5121Z" fill="#0B132A"/>
<path d="M48.1891 6.16509L44.2219 5.58853L42.4485 1.99322C42.4 1.89478 42.3203 1.81509 42.2219 1.76666C41.975 1.64478 41.675 1.74634 41.5516 1.99322L39.7782 5.58853L35.811 6.16509C35.7016 6.18072 35.6016 6.23228 35.525 6.31041C35.4325 6.40554 35.3815 6.53353 35.3832 6.66625C35.385 6.79897 35.4394 6.92557 35.5344 7.01822L38.4047 9.81666L37.7266 13.7682C37.7107 13.8601 37.7209 13.9547 37.756 14.0411C37.791 14.1276 37.8497 14.2024 37.9251 14.2572C38.0006 14.3121 38.0899 14.3446 38.183 14.3513C38.276 14.3579 38.3691 14.3383 38.4516 14.2948L42 12.4292L45.5485 14.2948C45.6453 14.3463 45.7578 14.3635 45.8657 14.3448C46.1375 14.2979 46.3203 14.0401 46.2735 13.7682L45.5953 9.81666L48.4657 7.01822C48.5438 6.94166 48.5953 6.84166 48.611 6.73228C48.6532 6.45884 48.4625 6.20572 48.1891 6.16509Z" fill="#FEA250"/>
</svg>
