<svg width="16" height="17" viewBox="0 0 16 17" fill="none" xmlns="http://www.w3.org/2000/svg">
<path d="M14.1891 6.16509L10.2219 5.58853L8.44847 1.99322C8.40003 1.89478 8.32034 1.81509 8.2219 1.76666C7.97503 1.64478 7.67503 1.74634 7.55159 1.99322L5.77815 5.58853L1.81097 6.16509C1.70159 6.18072 1.60159 6.23228 1.52503 6.31041C1.43247 6.40554 1.38146 6.53353 1.38322 6.66625C1.38498 6.79897 1.43936 6.92557 1.5344 7.01822L4.40472 9.81666L3.72659 13.7682C3.71069 13.8601 3.72086 13.9547 3.75595 14.0411C3.79105 14.1276 3.84966 14.2024 3.92514 14.2572C4.00062 14.3121 4.08995 14.3446 4.183 14.3513C4.27605 14.3579 4.3691 14.3383 4.45159 14.2948L8.00003 12.4292L11.5485 14.2948C11.6453 14.3463 11.7578 14.3635 11.8657 14.3448C12.1375 14.2979 12.3203 14.0401 12.2735 13.7682L11.5953 9.81666L14.4657 7.01822C14.5438 6.94166 14.5953 6.84166 14.611 6.73228C14.6532 6.45884 14.4625 6.20572 14.1891 6.16509Z" fill="#FEA250"/>
</svg>
